# xmcd
#
# Track frame offsets: 
#        150
#        24758
#        45352
#        80639
#        103453
#        132758
#        156983
#        185641
#        209111
#        240651
#
# Disc length: 3541 seconds
#
# Revision: 0
# Processed by: cddbd v1.5.2PL0 Copyright (c) Steve Scherf et al.
# Submitted via: ExactAudioCopyFreeDBPlugin 1.0
#
DISCID=880dd30a
DTITLE=Kumar Sanu - Phirey Elam
DYEAR=2009
DGENRE=Bengali Modern
TTITLE0=Ghum Ghum Chokhhe
TTITLE1=Achena Aakash
TTITLE2=Jibone Kichu Aasha
TTITLE3=Keu Chupi Chupi
TTITLE4=Kokhono Kuler Aasha
TTITLE5=Abhiman Jome Jai
TTITLE6=Dekhechi Jake Swapne
TTITLE7=Brishti Bheja
TTITLE8=E Jibon
TTITLE9=Aashbo Aami Fire
EXTD=
EXTT0=
EXTT1=
EXTT2=
EXTT3=
EXTT4=
EXTT5=
EXTT6=
EXTT7=
EXTT8=
EXTT9=
PLAYORDER=
